<?xml version="1.0" encoding="UTF-8" standalone="no" ?>
<!-- Created with Inkscape (http://www.inkscape.org/) -->
<svg
    width="512"
    height="512"
    viewBox="0 0 512 512"
    version="1.1"
    id="svg1"
    sodipodi:docname="io.github.ebonjaeger.bluejay.svg"
    inkscape:version="1.4 (e7c3feb100, 2024-10-09)"
    inkscape:export-filename="io.github.ebonjaeger.bluejay.svg"
    inkscape:export-xdpi="114.42818"
    inkscape:export-ydpi="114.42818"
    xmlns:inkscape="http://www.inkscape.org/namespaces/inkscape"
    xmlns:sodipodi="http://sodipodi.sourceforge.net/DTD/sodipodi-0.dtd"
    xmlns:xlink="http://www.w3.org/1999/xlink"
    xmlns="http://www.w3.org/2000/svg"
    xmlns:svg="http://www.w3.org/2000/svg"
>
  <sodipodi:namedview
        id="namedview1"
        pagecolor="#505050"
        bordercolor="#ffffff"
        borderopacity="1"
        inkscape:showpageshadow="0"
        inkscape:pageopacity="0"
        inkscape:pagecheckerboard="1"
        inkscape:deskcolor="#505050"
        inkscape:zoom="1"
        inkscape:cx="127"
        inkscape:cy="246"
        inkscape:window-width="1920"
        inkscape:window-height="1011"
        inkscape:window-x="0"
        inkscape:window-y="0"
        inkscape:window-maximized="1"
        inkscape:current-layer="layer2"
    />
  <defs id="defs1">
    <linearGradient id="linearGradient97" inkscape:collect="always">
      <stop style="stop-color:#1e90ff;stop-opacity:1;" offset="0" id="stop97" />
      <stop style="stop-color:#0068e4;stop-opacity:1;" offset="1" id="stop98" />
    </linearGradient>
    <linearGradient id="linearGradient96" inkscape:collect="always">
      <stop style="stop-color:#004c95;stop-opacity:1;" offset="0" id="stop96" />
      <stop style="stop-color:#007bf2;stop-opacity:1;" offset="1" id="stop95" />
    </linearGradient>
    <linearGradient id="linearGradient49" inkscape:collect="always">
      <stop style="stop-color:#003b73;stop-opacity:1;" offset="0" id="stop48" />
      <stop style="stop-color:#005eb8;stop-opacity:1;" offset="1" id="stop49" />
    </linearGradient>
    <linearGradient id="linearGradient47" inkscape:collect="always">
      <stop style="stop-color:#a9a9a9;stop-opacity:1" offset="0" id="stop46" />
      <stop style="stop-color:#f5f5f5;stop-opacity:1" offset="1" id="stop47" />
    </linearGradient>
    <linearGradient id="linearGradient5" inkscape:collect="always">
      <stop style="stop-color:#1e90ff;stop-opacity:1;" offset="0" id="stop5" />
      <stop style="stop-color:#004c95;stop-opacity:1;" offset="1" id="stop6" />
    </linearGradient>
    <linearGradient
            inkscape:collect="always"
            xlink:href="#linearGradient5"
            id="linearGradient6"
            x1="43.40099"
            y1="43.722771"
            x2="467.96533"
            y2="466.37625"
            gradientUnits="userSpaceOnUse"
        />
    <linearGradient
            inkscape:collect="always"
            xlink:href="#linearGradient47"
            id="linearGradient46"
            x1="263.54684"
            y1="62.467979"
            x2="242.66528"
            y2="394.6705"
            gradientUnits="userSpaceOnUse"
        />
    <linearGradient
            inkscape:collect="always"
            xlink:href="#linearGradient49"
            id="linearGradient48"
            x1="-44.427994"
            y1="137.97884"
            x2="364.21008"
            y2="243.39984"
            gradientUnits="userSpaceOnUse"
        />
    <linearGradient
            inkscape:collect="always"
            xlink:href="#linearGradient96"
            id="linearGradient95"
            x1="161.22035"
            y1="160.5213"
            x2="429.92093"
            y2="403.75797"
            gradientUnits="userSpaceOnUse"
        />
    <linearGradient
            inkscape:collect="always"
            xlink:href="#linearGradient97"
            id="linearGradient98"
            x1="122.10657"
            y1="106.04621"
            x2="440.7998"
            y2="431.31534"
            gradientUnits="userSpaceOnUse"
        />
  </defs>
  <g
        id="layer2"
        transform="translate(-0.27227723,0.01980198)"
        inkscape:label="g1"
    >
    <circle
            style="fill:url(#linearGradient6);stroke:#4169e1"
            id="path1"
            cx="256"
            cy="256"
            r="214"
            inkscape:label="circle1"
        />
    <ellipse
            style="fill:url(#linearGradient98);fill-opacity:1;stroke:none;stroke-width:15.6081"
            id="path96"
            cx="256.27228"
            cy="245.60036"
            rx="214.77228"
            ry="204.13997"
            inkscape:label="ellipse1"
        />
    <path
            style="fill:url(#linearGradient95);fill-opacity:1;stroke:none;stroke-width:16"
            d="M 311.97426,62.006941 150.08341,348.51525 282.26371,448.19763 C 363.27517,446.79936 462.90797,383.24336 469,266 Z"
            id="path95"
            transform="translate(0.27227723,-0.01980198)"
            sodipodi:nodetypes="ccccc"
        />
    <g
            id="layer3"
            transform="matrix(-0.8258582,0.48805763,0.47680945,0.84534062,293.88326,-82.877693)"
            inkscape:label="g2"
        >
      <path
                style="fill:url(#linearGradient46);fill-opacity:1;stroke-width:14.4274"
                d="M 256,469.15484 C 202.62454,374.18296 149.63884,278.98968 96.814959,183.70978 c 20.990111,10.82606 38.646591,28.05514 62.395131,33.14434 25.09021,6.79307 51.11165,9.80474 75.8061,18.14594 8.60768,-9.70405 22.43917,-1.61159 33.44159,-2.518 9.79331,2.41956 3.04868,-12.82165 15.0013,-8.30752 17.97951,3.55927 30.05839,-0.78669 47.50945,4.62433 10.07466,4.84989 18.42309,26.5861 26.64244,33.65608 3.95279,4.34625 9.9144,8.46301 3.93726,13.94366 C 326.43224,340.68713 291.54436,405.10155 256,469.15484 l 0.21163,0.49722 z"
                id="path4"
                sodipodi:nodetypes="cccccccccccc"
            />
      <path
                style="display:inline;fill:url(#linearGradient48);fill-opacity:1;stroke:none;stroke-width:10.2017;stroke-dasharray:none"
                d="m 203.10013,231.36411 c -41.04264,-4.19861 -75.30699,-30.16835 -103.757444,-58.2423 -6.811937,-6.56444 -24.305618,-17.91647 -4.002948,-15.95765 19.518962,-0.91353 39.103052,2.02154 58.698132,0.64406 40.97736,-1.28091 84.7703,-3.48101 121.82348,17.32444 22.1088,10.848 39.09844,28.97068 55.97658,46.4066 -11.59554,-2.03614 -22.23492,4.80055 -33.30148,6.12119 -7.75115,-2.13672 -15.50231,-4.27343 -23.25347,-6.41014 -2.52303,12.8616 -16.10386,8.74687 -25.60446,7.16087 -8.16607,0.90728 -18.26314,4.36733 -17.53797,-4.66269 -10.18881,-0.49317 -19.03359,6.65604 -29.04042,7.61562 z"
                id="path8"
            />
      <path
                style="fill:none;stroke:#000000;stroke-width:16;stroke-dasharray:none"
                d="M 240.69739,230.49564 C 177.16677,240.36303 111.34941,207.39687 79.798762,151.73805"
                id="path5"
            />
      <path
                style="fill:#000000;stroke:#000000;stroke-width:16;stroke-dasharray:none"
                d="m 270.98381,229.53923 c 36.66252,0.10627 73.32503,0.21253 109.98755,0.3188"
                id="path7"
            />
      <path
                style="fill:#000000;stroke:#000000;stroke-width:10.2017;stroke-dasharray:none"
                d="m 358.50502,248.2252 c -5.93494,-9.14658 -12.39542,-17.93215 -18.92845,-26.65608 14.79704,-0.0486 29.59852,-0.40361 44.39261,-0.084 -6.39486,9.7727 -13.39298,31.01849 -20.37593,34.57111 -1.69608,-2.61035 -3.39215,-5.2207 -5.08823,-7.83105 z"
                id="path6"
            />
      <path
                id="path2"
                style="fill:none;stroke:#f0f8ff;stroke-width:12"
                d="M 256.00001,469.91782 C 194.24725,362.95891 132.49449,256.00001 70.741734,149.0411 c 61.878926,21.26971 129.645846,-5.22816 190.857906,19.33888 46.63878,18.43241 78.65439,60.04393 103.16544,102.12063 -36.25502,66.4724 -72.51005,132.94481 -108.76507,199.41721 z m 69.52055,-254.90419 c 23.20806,0 46.41611,-1e-5 69.62417,-1e-5 C 348.76315,299.72736 302.38158,384.4411 256,469.15484 206.94367,384.44111 157.88733,299.72737 108.831,215.01364"
            />
      <circle
                style="fill:#000000;stroke:#f0f8ff;stroke-width:12;stroke-dasharray:none"
                id="path3"
                cx="256"
                cy="229.85803"
                r="14.98381"
                inkscape:label="circle2"
            />
    </g>
  </g>
</svg>
